<?xml version="1.0" encoding="UTF-8" standalone="no"?>
<svg
   xmlns:dc="http://purl.org/dc/elements/1.1/"
   xmlns:cc="http://creativecommons.org/ns#"
   xmlns:rdf="http://www.w3.org/1999/02/22-rdf-syntax-ns#"
   xmlns:svg="http://www.w3.org/2000/svg"
   xmlns="http://www.w3.org/2000/svg"
   xmlns:sodipodi="http://sodipodi.sourceforge.net/DTD/sodipodi-0.dtd"
   xmlns:inkscape="http://www.inkscape.org/namespaces/inkscape"
   width="655.86353"
   height="632.14771"
   id="svg2"
   sodipodi:version="0.32"
   inkscape:version="0.48.1 r9760"
   sodipodi:docname="bibtex_icon.svg"
   version="1.0">
  <metadata
     id="metadata27">
    <rdf:RDF>
      <cc:Work
         rdf:about="">
        <dc:format>image/svg+xml</dc:format>
        <dc:type
           rdf:resource="http://purl.org/dc/dcmitype/StillImage" />
        <cc:license
           rdf:resource="http://web.resource.org/cc/PublicDomain" />
        <dc:title />
      </cc:Work>
      <cc:License
         rdf:about="http://web.resource.org/cc/PublicDomain">
        <cc:permits
           rdf:resource="http://web.resource.org/cc/Reproduction" />
        <cc:permits
           rdf:resource="http://web.resource.org/cc/Distribution" />
        <cc:permits
           rdf:resource="http://web.resource.org/cc/DerivativeWorks" />
      </cc:License>
    </rdf:RDF>
  </metadata>
  <sodipodi:namedview
     inkscape:window-height="976"
     inkscape:window-width="1680"
     inkscape:pageshadow="2"
     inkscape:pageopacity="0.0"
     borderopacity="1.0"
     bordercolor="#666666"
     pagecolor="#ffffff"
     id="base"
     inkscape:zoom="0.60318285"
     inkscape:cx="555.18992"
     inkscape:cy="220.95952"
     inkscape:window-x="0"
     inkscape:window-y="25"
     inkscape:current-layer="svg2"
     showgrid="false"
     inkscape:window-maximized="1"
     fit-margin-top="10"
     fit-margin-right="10"
     fit-margin-bottom="1"
     fit-margin-left="10" />
  <defs
     id="defs4">
    <marker
       id="ArrowEnd"
       viewBox="0 0 10 10"
       refX="0"
       refY="5"
       markerUnits="strokeWidth"
       markerWidth="4"
       markerHeight="3"
       orient="auto">
      <path
         d="M 0,0 10,5 0,10 0,0 z"
         id="path7"
         inkscape:connector-curvature="0" />
    </marker>
    <marker
       id="ArrowStart"
       viewBox="0 0 10 10"
       refX="10"
       refY="5"
       markerUnits="strokeWidth"
       markerWidth="4"
       markerHeight="3"
       orient="auto">
      <path
         d="M 10,0 0,5 10,10 10,0 z"
         id="path10"
         inkscape:connector-curvature="0" />
    </marker>
  </defs>
  <g
     id="g3005">
    <path
       style="fill:#000000;stroke:none"
       d="m 10,10.055712 0,8.397955 c 24.294165,0 28.18404,0 28.18404,15.685886 l 0,188.975037 c 0,15.68589 -3.833844,15.68589 -28.18404,15.68589 l 0,8.39764 119.30822,0 c 44.37547,0 73.1774,-31.59646 73.1774,-63.19292 0,-31.27347 -28.47894,-57.98357 -65.55212,-60.45455 33.23948,-6.57235 56.49447,-28.787747 56.49447,-55.174721 C 193.42797,39.574565 165.01924,10 120.25057,10 L 10,10.055712 z m 50.680577,110.980978 0,-88.863279 c 0,-11.852112 0.660156,-13.607471 14.47834,-13.607471 l 44.164823,0 c 34.11013,0 49.30452,27.861124 49.30452,49.473241 0,26.499177 -21.06445,52.997509 -58.306,52.997509 l -49.641683,0 z m 14.47834,117.9323 c -13.762013,0 -14.422028,-1.75535 -14.422028,-13.60754 l 0,-98.67981 63.796621,0 c 35.48647,0 52.77324,31.82171 52.77324,57.37973 0,25.50185 -19.64597,54.90762 -57.22483,54.90762"
       id="path14"
       inkscape:connector-curvature="0" />
    <path
       style="fill:#000000;stroke:none"
       d="m 268.52924,94.215232 c 0,-14.928273 1.75536,-16.683632 26.93422,-16.683632 l 0,-8.397075 c -11.79601,0.336889 -29.89727,1.053356 -38.95492,1.053356 -9.04361,0 -27.14487,-0.660015 -38.94088,-1.053356 l 0,8.397075 c 24.02735,0 25.72654,1.755359 25.72654,16.683632 l 0,128.028708 c 0,14.91352 -1.64302,16.66888 -25.72654,16.66888 l 0,8.39764 c 11.79601,-0.33703 29.89727,-0.983 38.94088,-0.983 9.05765,0 27.10274,0.64597 38.95492,0.983 l 0,-8.39764 c -25.17886,0 -26.93422,-1.69918 -26.93422,-16.66888"
       id="path16"
       inkscape:connector-curvature="0" />
    <path
       style="fill:#000000;stroke:none"
       d="m 315.43242,69.035944 0,8.383313 c 22.97414,0 24.67333,2.09309 24.67333,16.346041 l 0,128.745452 c 0,14.26756 -1.69919,16.3459 -24.67333,16.3459 l 0,8.39764 104.9845,0 c 38.56172,0 62.9261,-23.59202 62.9261,-47.83002 0,-22.55285 -22.27199,-41.63711 -52.50629,-45.42868 24.68736,-5.1543 44.48781,-20.78359 44.48781,-40.92135 0,-21.822054 -24.29416,-44.038296 -62.19587,-44.038296 l -97.69625,0 z m 47.17,81.448926 0,-58.08159 c 0,-13.831946 1.75536,-14.87168 14.04287,-14.87168 l 33.73098,0 c 31.98965,0 37.25573,26.99124 37.25573,35.27597 0,12.44184 -9.11382,37.6773 -45.6955,37.6773 l -39.33408,0 z m 0,7.02144 52.22544,0 c 29.56024,0 38.99705,26.77975 38.99705,41.58093 0,15.8544 -11.45899,39.82558 -43.16779,39.82558 l -34.12417,0 c -12.17517,0 -13.87436,-1.03917 -13.87436,-15.13821"
       id="path18"
       inkscape:connector-curvature="0" />
    <path
       style="fill:#000000;stroke:none"
       d="m 268.46143,289.28801 -200.81304,0 -5.86992,76.9127 6.24908,0 c 4.49372,-57.60371 9.43681,-67.68679 63.36143,-67.68679 6.24908,0 16.40207,0 19.1966,0 6.64228,1.03968 6.64228,5.2661 6.64228,13.27067 l 0,189.29803 c 0,12.56837 -1.05322,16.40207 -30.34664,16.40207 l -9.87214,0 0,8.39764 c 16.68293,-0.32299 34.068,-0.66002 51.13009,-0.66002 17.00591,0 34.44716,0.33703 51.11605,0.66002 l 0,-8.39764 -9.70363,0 c -28.8581,0 -29.89727,-3.8337 -29.89727,-16.40207 l 0,-189.29803 c 0,-7.68145 0,-11.85214 6.26312,-13.27067 2.73836,0 12.83519,0 19.08426,0 53.20844,0 58.41834,10.02649 62.91206,67.68679 l 6.26312,0"
       id="path20"
       inkscape:connector-curvature="0" />
    <path
       style="fill:#000000;stroke:none"
       d="m 441.59598,543.2674 -6.26312,0 c -7.62528,51.56542 -12.119,79.59499 -73.28974,79.59499 l -48.26535,0 c -13.87435,0 -14.53437,-1.75536 -14.53437,-13.70584 l 0,-97.20475 32.80415,0 c 32.80414,0 35.92166,12.00665 35.92166,41.35625 l 5.6031,0 0,-90.45012 -5.6031,0 c 0,28.84405 -3.11752,40.64006 -35.92166,40.64006 l -32.80415,0 0,-86.18109 c 0,-11.72608 0.66002,-13.48144 14.53437,-13.48144 l 47.5632,0 c 53.81228,0 60.06136,21.38743 64.94828,67.34989 l 6.24908,0 -8.34147,-76.8989 -176.08355,0 0,9.54901 c 24.6312,0 28.57724,0 28.57724,15.63028 l 0,187.65459 c 0,15.62971 -3.88987,15.62971 -28.57724,15.62971 l 0,8.39764 180.97047,0"
       id="path22"
       inkscape:connector-curvature="0" />
    <path
       style="fill:#000000;stroke:none"
       d="m 536.70834,394.28645 51.45311,-74.38508 c 5.1537,-7.30257 15.6297,-22.32854 44.1648,-22.70739 l 0,-8.39795 c -7.9623,0.65998 -21.1767,0.65998 -29.5181,0.65998 -11.459,0 -25.72656,0 -34.39101,-0.65998 l 0,8.39795 c 11.13599,1.03882 13.87435,8.00451 13.87435,13.60747 0,4.15697 -1.69919,6.96568 -4.17073,10.41981 l -45.90614,66.59143 -51.45308,-75.31163 c -2.41537,-3.79186 -2.7524,-4.8872 -2.7524,-5.92595 0,-3.13198 3.79157,-9.05799 15.30673,-9.38113 l 0,-8.39795 c -11.136,0.65998 -28.14191,0.65998 -39.6009,0.65998 -9.00148,0 -26.38655,0 -34.78419,-0.65998 l 0,8.39795 c 19.09831,0 25.34738,0.71655 33.02883,11.51522 l 67.08279,98.52464 -60.49668,88.37206 c -14.92757,21.61198 -37.52255,21.99113 -44.16483,21.99113 l 0,8.39764 c 7.94827,-0.66001 21.17665,-0.66001 29.51812,-0.66001 9.38063,0 25.72654,0 34.39099,0.66001 l 0,-8.39764 c -10.75684,-1.03917 -13.87436,-8.00443 -13.87436,-13.60754 0,-4.49372 1.69919,-6.96526 3.45455,-9.43681 l 55.6238,-81.18183 60.49669,88.91946 c 2.73837,3.84774 2.73837,4.88691 2.73837,5.92609 0,2.73836 -3.11753,8.72062 -15.2927,9.43681 l 0,8.39763 c 11.136,-0.66001 28.1419,-0.66001 39.6009,-0.66001 9.0015,0 26.3865,0 34.8263,0.66001 l 0,-8.39763 c -22.272,0 -25.7827,-1.69919 -32.6918,-11.51516"
       id="path24"
       inkscape:connector-curvature="0" />
  </g>
</svg>
